<svg xmlns="http://www.w3.org/2000/svg" width="900" height="60" viewBox="0 0 900 60">
  <defs>
    <style>
      @keyframes scroll {
        0%   { transform: translateX(0px); }
        100% { transform: translateX(-40px); }
      }
      .blocks { animation: scroll 0.6s linear infinite; }
      @keyframes bob {
        0%, 100% { transform: translateY(0px); }
        50%       { transform: translateY(-2px); }
      }
      .steve { animation: bob 0.5s ease-in-out infinite; }
      @keyframes drift {
        0%   { transform: translateX(0px); }
        100% { transform: translateX(-900px); }
      }
      .clouds { animation: drift 28s linear infinite; }
    </style>
  </defs>

  <!-- Sky -->
  <rect width="900" height="42" fill="#7EC8E3"/>

  <!-- Clouds -->
  <g class="clouds">
    <rect x="60"   y="7"  width="60" height="14" rx="3" fill="white" opacity="0.9"/>
    <rect x="50"   y="11" width="80" height="10" rx="3" fill="white" opacity="0.9"/>
    <rect x="300"  y="9"  width="50" height="12" rx="3" fill="white" opacity="0.9"/>
    <rect x="290"  y="13" width="70" height="8"  rx="3" fill="white" opacity="0.9"/>
    <rect x="550"  y="6"  width="70" height="14" rx="3" fill="white" opacity="0.9"/>
    <rect x="540"  y="10" width="90" height="10" rx="3" fill="white" opacity="0.9"/>
    <rect x="800"  y="8"  width="55" height="12" rx="3" fill="white" opacity="0.9"/>
    <rect x="790"  y="12" width="75" height="8"  rx="3" fill="white" opacity="0.9"/>
    <rect x="960"  y="7"  width="60" height="14" rx="3" fill="white" opacity="0.9"/>
    <rect x="950"  y="11" width="80" height="10" rx="3" fill="white" opacity="0.9"/>
    <rect x="1200" y="9"  width="50" height="12" rx="3" fill="white" opacity="0.9"/>
    <rect x="1450" y="6"  width="70" height="14" rx="3" fill="white" opacity="0.9"/>
  </g>

  <!-- Scrolling grass/dirt blocks -->
  <g class="blocks">
    <rect x="0" y="40" width="40" height="20" fill="#8B5E3C"/>
    <rect x="0" y="38" width="40" height="6" fill="#5D8731"/>
    <rect x="0" y="38" width="40" height="2" fill="#6BA040"/>
    <rect x="4" y="46" width="4" height="4" fill="#7A5234" opacity="0.6"/>
    <rect x="18" y="50" width="5" height="3" fill="#9B6B45" opacity="0.5"/>
    <rect x="30" y="44" width="4" height="4" fill="#7A5234" opacity="0.6"/>
    <line x1="0" y1="38" x2="0" y2="60" stroke="#000000" stroke-width="0.5" opacity="0.3"/>
    <rect x="40" y="40" width="40" height="20" fill="#8B5E3C"/>
    <rect x="40" y="38" width="40" height="6" fill="#5D8731"/>
    <rect x="40" y="38" width="40" height="2" fill="#6BA040"/>
    <rect x="44" y="46" width="4" height="4" fill="#7A5234" opacity="0.6"/>
    <rect x="58" y="50" width="5" height="3" fill="#9B6B45" opacity="0.5"/>
    <rect x="70" y="44" width="4" height="4" fill="#7A5234" opacity="0.6"/>
    <line x1="40" y1="38" x2="40" y2="60" stroke="#000000" stroke-width="0.5" opacity="0.3"/>
    <rect x="80" y="40" width="40" height="20" fill="#8B5E3C"/>
    <rect x="80" y="38" width="40" height="6" fill="#5D8731"/>
    <rect x="80" y="38" width="40" height="2" fill="#6BA040"/>
    <rect x="84" y="46" width="4" height="4" fill="#7A5234" opacity="0.6"/>
    <rect x="98" y="50" width="5" height="3" fill="#9B6B45" opacity="0.5"/>
    <rect x="110" y="44" width="4" height="4" fill="#7A5234" opacity="0.6"/>
    <line x1="80" y1="38" x2="80" y2="60" stroke="#000000" stroke-width="0.5" opacity="0.3"/>
    <rect x="120" y="40" width="40" height="20" fill="#8B5E3C"/>
    <rect x="120" y="38" width="40" height="6" fill="#5D8731"/>
    <rect x="120" y="38" width="40" height="2" fill="#6BA040"/>
    <rect x="124" y="46" width="4" height="4" fill="#7A5234" opacity="0.6"/>
    <rect x="138" y="50" width="5" height="3" fill="#9B6B45" opacity="0.5"/>
    <rect x="150" y="44" width="4" height="4" fill="#7A5234" opacity="0.6"/>
    <line x1="120" y1="38" x2="120" y2="60" stroke="#000000" stroke-width="0.5" opacity="0.3"/>
    <rect x="160" y="40" width="40" height="20" fill="#8B5E3C"/>
    <rect x="160" y="38" width="40" height="6" fill="#5D8731"/>
    <rect x="160" y="38" width="40" height="2" fill="#6BA040"/>
    <rect x="164" y="46" width="4" height="4" fill="#7A5234" opacity="0.6"/>
    <rect x="178" y="50" width="5" height="3" fill="#9B6B45" opacity="0.5"/>
    <rect x="190" y="44" width="4" height="4" fill="#7A5234" opacity="0.6"/>
    <line x1="160" y1="38" x2="160" y2="60" stroke="#000000" stroke-width="0.5" opacity="0.3"/>
    <rect x="200" y="40" width="40" height="20" fill="#8B5E3C"/>
    <rect x="200" y="38" width="40" height="6" fill="#5D8731"/>
    <rect x="200" y="38" width="40" height="2" fill="#6BA040"/>
    <rect x="204" y="46" width="4" height="4" fill="#7A5234" opacity="0.6"/>
    <rect x="218" y="50" width="5" height="3" fill="#9B6B45" opacity="0.5"/>
    <rect x="230" y="44" width="4" height="4" fill="#7A5234" opacity="0.6"/>
    <line x1="200" y1="38" x2="200" y2="60" stroke="#000000" stroke-width="0.5" opacity="0.3"/>
    <rect x="240" y="40" width="40" height="20" fill="#8B5E3C"/>
    <rect x="240" y="38" width="40" height="6" fill="#5D8731"/>
    <rect x="240" y="38" width="40" height="2" fill="#6BA040"/>
    <rect x="244" y="46" width="4" height="4" fill="#7A5234" opacity="0.6"/>
    <rect x="258" y="50" width="5" height="3" fill="#9B6B45" opacity="0.5"/>
    <rect x="270" y="44" width="4" height="4" fill="#7A5234" opacity="0.6"/>
    <line x1="240" y1="38" x2="240" y2="60" stroke="#000000" stroke-width="0.5" opacity="0.3"/>
    <rect x="280" y="40" width="40" height="20" fill="#8B5E3C"/>
    <rect x="280" y="38" width="40" height="6" fill="#5D8731"/>
    <rect x="280" y="38" width="40" height="2" fill="#6BA040"/>
    <rect x="284" y="46" width="4" height="4" fill="#7A5234" opacity="0.6"/>
    <rect x="298" y="50" width="5" height="3" fill="#9B6B45" opacity="0.5"/>
    <rect x="310" y="44" width="4" height="4" fill="#7A5234" opacity="0.6"/>
    <line x1="280" y1="38" x2="280" y2="60" stroke="#000000" stroke-width="0.5" opacity="0.3"/>
    <rect x="320" y="40" width="40" height="20" fill="#8B5E3C"/>
    <rect x="320" y="38" width="40" height="6" fill="#5D8731"/>
    <rect x="320" y="38" width="40" height="2" fill="#6BA040"/>
    <rect x="324" y="46" width="4" height="4" fill="#7A5234" opacity="0.6"/>
    <rect x="338" y="50" width="5" height="3" fill="#9B6B45" opacity="0.5"/>
    <rect x="350" y="44" width="4" height="4" fill="#7A5234" opacity="0.6"/>
    <line x1="320" y1="38" x2="320" y2="60" stroke="#000000" stroke-width="0.5" opacity="0.3"/>
    <rect x="360" y="40" width="40" height="20" fill="#8B5E3C"/>
    <rect x="360" y="38" width="40" height="6" fill="#5D8731"/>
    <rect x="360" y="38" width="40" height="2" fill="#6BA040"/>
    <rect x="364" y="46" width="4" height="4" fill="#7A5234" opacity="0.6"/>
    <rect x="378" y="50" width="5" height="3" fill="#9B6B45" opacity="0.5"/>
    <rect x="390" y="44" width="4" height="4" fill="#7A5234" opacity="0.6"/>
    <line x1="360" y1="38" x2="360" y2="60" stroke="#000000" stroke-width="0.5" opacity="0.3"/>
    <rect x="400" y="40" width="40" height="20" fill="#8B5E3C"/>
    <rect x="400" y="38" width="40" height="6" fill="#5D8731"/>
    <rect x="400" y="38" width="40" height="2" fill="#6BA040"/>
    <rect x="404" y="46" width="4" height="4" fill="#7A5234" opacity="0.6"/>
    <rect x="418" y="50" width="5" height="3" fill="#9B6B45" opacity="0.5"/>
    <rect x="430" y="44" width="4" height="4" fill="#7A5234" opacity="0.6"/>
    <line x1="400" y1="38" x2="400" y2="60" stroke="#000000" stroke-width="0.5" opacity="0.3"/>
    <rect x="440" y="40" width="40" height="20" fill="#8B5E3C"/>
    <rect x="440" y="38" width="40" height="6" fill="#5D8731"/>
    <rect x="440" y="38" width="40" height="2" fill="#6BA040"/>
    <rect x="444" y="46" width="4" height="4" fill="#7A5234" opacity="0.6"/>
    <rect x="458" y="50" width="5" height="3" fill="#9B6B45" opacity="0.5"/>
    <rect x="470" y="44" width="4" height="4" fill="#7A5234" opacity="0.6"/>
    <line x1="440" y1="38" x2="440" y2="60" stroke="#000000" stroke-width="0.5" opacity="0.3"/>
    <rect x="480" y="40" width="40" height="20" fill="#8B5E3C"/>
    <rect x="480" y="38" width="40" height="6" fill="#5D8731"/>
    <rect x="480" y="38" width="40" height="2" fill="#6BA040"/>
    <rect x="484" y="46" width="4" height="4" fill="#7A5234" opacity="0.6"/>
    <rect x="498" y="50" width="5" height="3" fill="#9B6B45" opacity="0.5"/>
    <rect x="510" y="44" width="4" height="4" fill="#7A5234" opacity="0.6"/>
    <line x1="480" y1="38" x2="480" y2="60" stroke="#000000" stroke-width="0.5" opacity="0.3"/>
    <rect x="520" y="40" width="40" height="20" fill="#8B5E3C"/>
    <rect x="520" y="38" width="40" height="6" fill="#5D8731"/>
    <rect x="520" y="38" width="40" height="2" fill="#6BA040"/>
    <rect x="524" y="46" width="4" height="4" fill="#7A5234" opacity="0.6"/>
    <rect x="538" y="50" width="5" height="3" fill="#9B6B45" opacity="0.5"/>
    <rect x="550" y="44" width="4" height="4" fill="#7A5234" opacity="0.6"/>
    <line x1="520" y1="38" x2="520" y2="60" stroke="#000000" stroke-width="0.5" opacity="0.3"/>
    <rect x="560" y="40" width="40" height="20" fill="#8B5E3C"/>
    <rect x="560" y="38" width="40" height="6" fill="#5D8731"/>
    <rect x="560" y="38" width="40" height="2" fill="#6BA040"/>
    <rect x="564" y="46" width="4" height="4" fill="#7A5234" opacity="0.6"/>
    <rect x="578" y="50" width="5" height="3" fill="#9B6B45" opacity="0.5"/>
    <rect x="590" y="44" width="4" height="4" fill="#7A5234" opacity="0.6"/>
    <line x1="560" y1="38" x2="560" y2="60" stroke="#000000" stroke-width="0.5" opacity="0.3"/>
    <rect x="600" y="40" width="40" height="20" fill="#8B5E3C"/>
    <rect x="600" y="38" width="40" height="6" fill="#5D8731"/>
    <rect x="600" y="38" width="40" height="2" fill="#6BA040"/>
    <rect x="604" y="46" width="4" height="4" fill="#7A5234" opacity="0.6"/>
    <rect x="618" y="50" width="5" height="3" fill="#9B6B45" opacity="0.5"/>
    <rect x="630" y="44" width="4" height="4" fill="#7A5234" opacity="0.6"/>
    <line x1="600" y1="38" x2="600" y2="60" stroke="#000000" stroke-width="0.5" opacity="0.3"/>
    <rect x="640" y="40" width="40" height="20" fill="#8B5E3C"/>
    <rect x="640" y="38" width="40" height="6" fill="#5D8731"/>
    <rect x="640" y="38" width="40" height="2" fill="#6BA040"/>
    <rect x="644" y="46" width="4" height="4" fill="#7A5234" opacity="0.6"/>
    <rect x="658" y="50" width="5" height="3" fill="#9B6B45" opacity="0.5"/>
    <rect x="670" y="44" width="4" height="4" fill="#7A5234" opacity="0.6"/>
    <line x1="640" y1="38" x2="640" y2="60" stroke="#000000" stroke-width="0.5" opacity="0.3"/>
    <rect x="680" y="40" width="40" height="20" fill="#8B5E3C"/>
    <rect x="680" y="38" width="40" height="6" fill="#5D8731"/>
    <rect x="680" y="38" width="40" height="2" fill="#6BA040"/>
    <rect x="684" y="46" width="4" height="4" fill="#7A5234" opacity="0.6"/>
    <rect x="698" y="50" width="5" height="3" fill="#9B6B45" opacity="0.5"/>
    <rect x="710" y="44" width="4" height="4" fill="#7A5234" opacity="0.6"/>
    <line x1="680" y1="38" x2="680" y2="60" stroke="#000000" stroke-width="0.5" opacity="0.3"/>
    <rect x="720" y="40" width="40" height="20" fill="#8B5E3C"/>
    <rect x="720" y="38" width="40" height="6" fill="#5D8731"/>
    <rect x="720" y="38" width="40" height="2" fill="#6BA040"/>
    <rect x="724" y="46" width="4" height="4" fill="#7A5234" opacity="0.6"/>
    <rect x="738" y="50" width="5" height="3" fill="#9B6B45" opacity="0.5"/>
    <rect x="750" y="44" width="4" height="4" fill="#7A5234" opacity="0.6"/>
    <line x1="720" y1="38" x2="720" y2="60" stroke="#000000" stroke-width="0.5" opacity="0.3"/>
    <rect x="760" y="40" width="40" height="20" fill="#8B5E3C"/>
    <rect x="760" y="38" width="40" height="6" fill="#5D8731"/>
    <rect x="760" y="38" width="40" height="2" fill="#6BA040"/>
    <rect x="764" y="46" width="4" height="4" fill="#7A5234" opacity="0.6"/>
    <rect x="778" y="50" width="5" height="3" fill="#9B6B45" opacity="0.5"/>
    <rect x="790" y="44" width="4" height="4" fill="#7A5234" opacity="0.6"/>
    <line x1="760" y1="38" x2="760" y2="60" stroke="#000000" stroke-width="0.5" opacity="0.3"/>
    <rect x="800" y="40" width="40" height="20" fill="#8B5E3C"/>
    <rect x="800" y="38" width="40" height="6" fill="#5D8731"/>
    <rect x="800" y="38" width="40" height="2" fill="#6BA040"/>
    <rect x="804" y="46" width="4" height="4" fill="#7A5234" opacity="0.6"/>
    <rect x="818" y="50" width="5" height="3" fill="#9B6B45" opacity="0.5"/>
    <rect x="830" y="44" width="4" height="4" fill="#7A5234" opacity="0.6"/>
    <line x1="800" y1="38" x2="800" y2="60" stroke="#000000" stroke-width="0.5" opacity="0.3"/>
    <rect x="840" y="40" width="40" height="20" fill="#8B5E3C"/>
    <rect x="840" y="38" width="40" height="6" fill="#5D8731"/>
    <rect x="840" y="38" width="40" height="2" fill="#6BA040"/>
    <rect x="844" y="46" width="4" height="4" fill="#7A5234" opacity="0.6"/>
    <rect x="858" y="50" width="5" height="3" fill="#9B6B45" opacity="0.5"/>
    <rect x="870" y="44" width="4" height="4" fill="#7A5234" opacity="0.6"/>
    <line x1="840" y1="38" x2="840" y2="60" stroke="#000000" stroke-width="0.5" opacity="0.3"/>
    <rect x="880" y="40" width="40" height="20" fill="#8B5E3C"/>
    <rect x="880" y="38" width="40" height="6" fill="#5D8731"/>
    <rect x="880" y="38" width="40" height="2" fill="#6BA040"/>
    <rect x="884" y="46" width="4" height="4" fill="#7A5234" opacity="0.6"/>
    <rect x="898" y="50" width="5" height="3" fill="#9B6B45" opacity="0.5"/>
    <rect x="910" y="44" width="4" height="4" fill="#7A5234" opacity="0.6"/>
    <line x1="880" y1="38" x2="880" y2="60" stroke="#000000" stroke-width="0.5" opacity="0.3"/>
    <rect x="920" y="40" width="40" height="20" fill="#8B5E3C"/>
    <rect x="920" y="38" width="40" height="6" fill="#5D8731"/>
    <rect x="920" y="38" width="40" height="2" fill="#6BA040"/>
    <rect x="924" y="46" width="4" height="4" fill="#7A5234" opacity="0.6"/>
    <rect x="938" y="50" width="5" height="3" fill="#9B6B45" opacity="0.5"/>
    <rect x="950" y="44" width="4" height="4" fill="#7A5234" opacity="0.6"/>
    <line x1="920" y1="38" x2="920" y2="60" stroke="#000000" stroke-width="0.5" opacity="0.3"/>
  </g>

  <!-- Steve pixel art -->
  <g class="steve">
  <rect x="442" y="6" width="2" height="2" fill="#2C1A0E"/>
  <rect x="444" y="6" width="2" height="2" fill="#2C1A0E"/>
  <rect x="446" y="6" width="2" height="2" fill="#2C1A0E"/>
  <rect x="448" y="6" width="2" height="2" fill="#2C1A0E"/>
  <rect x="450" y="6" width="2" height="2" fill="#2C1A0E"/>
  <rect x="452" y="6" width="2" height="2" fill="#2C1A0E"/>
  <rect x="454" y="6" width="2" height="2" fill="#2C1A0E"/>
  <rect x="456" y="6" width="2" height="2" fill="#2C1A0E"/>
  <rect x="442" y="8" width="2" height="2" fill="#2C1A0E"/>
  <rect x="444" y="8" width="2" height="2" fill="#5C3317"/>
  <rect x="446" y="8" width="2" height="2" fill="#5C3317"/>
  <rect x="448" y="8" width="2" height="2" fill="#5C3317"/>
  <rect x="450" y="8" width="2" height="2" fill="#5C3317"/>
  <rect x="452" y="8" width="2" height="2" fill="#5C3317"/>
  <rect x="454" y="8" width="2" height="2" fill="#5C3317"/>
  <rect x="456" y="8" width="2" height="2" fill="#2C1A0E"/>
  <rect x="442" y="10" width="2" height="2" fill="#5C3317"/>
  <rect x="444" y="10" width="2" height="2" fill="#5C3317"/>
  <rect x="446" y="10" width="2" height="2" fill="#C68642"/>
  <rect x="448" y="10" width="2" height="2" fill="#5C3317"/>
  <rect x="450" y="10" width="2" height="2" fill="#5C3317"/>
  <rect x="452" y="10" width="2" height="2" fill="#C68642"/>
  <rect x="454" y="10" width="2" height="2" fill="#5C3317"/>
  <rect x="456" y="10" width="2" height="2" fill="#5C3317"/>
  <rect x="442" y="12" width="2" height="2" fill="#C68642"/>
  <rect x="444" y="12" width="2" height="2" fill="#C68642"/>
  <rect x="446" y="12" width="2" height="2" fill="#C68642"/>
  <rect x="448" y="12" width="2" height="2" fill="#C68642"/>
  <rect x="450" y="12" width="2" height="2" fill="#C68642"/>
  <rect x="452" y="12" width="2" height="2" fill="#C68642"/>
  <rect x="454" y="12" width="2" height="2" fill="#C68642"/>
  <rect x="456" y="12" width="2" height="2" fill="#C68642"/>
  <rect x="442" y="14" width="2" height="2" fill="#C68642"/>
  <rect x="444" y="14" width="2" height="2" fill="#F5DEB3"/>
  <rect x="446" y="14" width="2" height="2" fill="#5A3EAD"/>
  <rect x="448" y="14" width="2" height="2" fill="#C68642"/>
  <rect x="450" y="14" width="2" height="2" fill="#C68642"/>
  <rect x="452" y="14" width="2" height="2" fill="#5A3EAD"/>
  <rect x="454" y="14" width="2" height="2" fill="#F5DEB3"/>
  <rect x="456" y="14" width="2" height="2" fill="#C68642"/>
  <rect x="442" y="16" width="2" height="2" fill="#C68642"/>
  <rect x="444" y="16" width="2" height="2" fill="#C68642"/>
  <rect x="446" y="16" width="2" height="2" fill="#C68642"/>
  <rect x="448" y="16" width="2" height="2" fill="#C68642"/>
  <rect x="450" y="16" width="2" height="2" fill="#C68642"/>
  <rect x="452" y="16" width="2" height="2" fill="#C68642"/>
  <rect x="454" y="16" width="2" height="2" fill="#C68642"/>
  <rect x="456" y="16" width="2" height="2" fill="#C68642"/>
  <rect x="442" y="18" width="2" height="2" fill="#C68642"/>
  <rect x="444" y="18" width="2" height="2" fill="#9B6B3C"/>
  <rect x="446" y="18" width="2" height="2" fill="#9B6B3C"/>
  <rect x="448" y="18" width="2" height="2" fill="#9B6B3C"/>
  <rect x="450" y="18" width="2" height="2" fill="#9B6B3C"/>
  <rect x="452" y="18" width="2" height="2" fill="#9B6B3C"/>
  <rect x="454" y="18" width="2" height="2" fill="#9B6B3C"/>
  <rect x="456" y="18" width="2" height="2" fill="#C68642"/>
  <rect x="442" y="20" width="2" height="2" fill="#3D1F00"/>
  <rect x="444" y="20" width="2" height="2" fill="#3D1F00"/>
  <rect x="446" y="20" width="2" height="2" fill="#3D1F00"/>
  <rect x="448" y="20" width="2" height="2" fill="#3D1F00"/>
  <rect x="450" y="20" width="2" height="2" fill="#3D1F00"/>
  <rect x="452" y="20" width="2" height="2" fill="#3D1F00"/>
  <rect x="454" y="20" width="2" height="2" fill="#3D1F00"/>
  <rect x="456" y="20" width="2" height="2" fill="#3D1F00"/>
  <rect x="442" y="22" width="2" height="2" fill="#3C6EAC"/>
  <rect x="444" y="22" width="2" height="2" fill="#3C6EAC"/>
  <rect x="446" y="22" width="2" height="2" fill="#3C6EAC"/>
  <rect x="448" y="22" width="2" height="2" fill="#3C6EAC"/>
  <rect x="450" y="22" width="2" height="2" fill="#3C6EAC"/>
  <rect x="452" y="22" width="2" height="2" fill="#3C6EAC"/>
  <rect x="454" y="22" width="2" height="2" fill="#3C6EAC"/>
  <rect x="456" y="22" width="2" height="2" fill="#3C6EAC"/>
  <rect x="442" y="24" width="2" height="2" fill="#3C6EAC"/>
  <rect x="444" y="24" width="2" height="2" fill="#2C5590"/>
  <rect x="446" y="24" width="2" height="2" fill="#3C6EAC"/>
  <rect x="448" y="24" width="2" height="2" fill="#3C6EAC"/>
  <rect x="450" y="24" width="2" height="2" fill="#3C6EAC"/>
  <rect x="452" y="24" width="2" height="2" fill="#3C6EAC"/>
  <rect x="454" y="24" width="2" height="2" fill="#2C5590"/>
  <rect x="456" y="24" width="2" height="2" fill="#3C6EAC"/>
  <rect x="442" y="26" width="2" height="2" fill="#3C6EAC"/>
  <rect x="444" y="26" width="2" height="2" fill="#3C6EAC"/>
  <rect x="446" y="26" width="2" height="2" fill="#3C6EAC"/>
  <rect x="448" y="26" width="2" height="2" fill="#3C6EAC"/>
  <rect x="450" y="26" width="2" height="2" fill="#3C6EAC"/>
  <rect x="452" y="26" width="2" height="2" fill="#3C6EAC"/>
  <rect x="454" y="26" width="2" height="2" fill="#3C6EAC"/>
  <rect x="456" y="26" width="2" height="2" fill="#3C6EAC"/>
  <rect x="442" y="28" width="2" height="2" fill="#3C6EAC"/>
  <rect x="444" y="28" width="2" height="2" fill="#3C6EAC"/>
  <rect x="446" y="28" width="2" height="2" fill="#3C6EAC"/>
  <rect x="448" y="28" width="2" height="2" fill="#3C6EAC"/>
  <rect x="450" y="28" width="2" height="2" fill="#3C6EAC"/>
  <rect x="452" y="28" width="2" height="2" fill="#3C6EAC"/>
  <rect x="454" y="28" width="2" height="2" fill="#3C6EAC"/>
  <rect x="456" y="28" width="2" height="2" fill="#3C6EAC"/>
  <rect x="442" y="30" width="2" height="2" fill="#3C6EAC"/>
  <rect x="444" y="30" width="2" height="2" fill="#2C5590"/>
  <rect x="446" y="30" width="2" height="2" fill="#3C6EAC"/>
  <rect x="448" y="30" width="2" height="2" fill="#3C6EAC"/>
  <rect x="450" y="30" width="2" height="2" fill="#3C6EAC"/>
  <rect x="452" y="30" width="2" height="2" fill="#3C6EAC"/>
  <rect x="454" y="30" width="2" height="2" fill="#2C5590"/>
  <rect x="456" y="30" width="2" height="2" fill="#3C6EAC"/>
  <rect x="442" y="32" width="2" height="2" fill="#3C6EAC"/>
  <rect x="444" y="32" width="2" height="2" fill="#3C6EAC"/>
  <rect x="446" y="32" width="2" height="2" fill="#3C6EAC"/>
  <rect x="448" y="32" width="2" height="2" fill="#3C6EAC"/>
  <rect x="450" y="32" width="2" height="2" fill="#3C6EAC"/>
  <rect x="452" y="32" width="2" height="2" fill="#3C6EAC"/>
  <rect x="454" y="32" width="2" height="2" fill="#3C6EAC"/>
  <rect x="456" y="32" width="2" height="2" fill="#3C6EAC"/>
  <rect x="442" y="34" width="2" height="2" fill="#5D4037"/>
  <rect x="444" y="34" width="2" height="2" fill="#5D4037"/>
  <rect x="446" y="34" width="2" height="2" fill="#5D4037"/>
  <rect x="448" y="34" width="2" height="2" fill="#5D4037"/>
  <rect x="450" y="34" width="2" height="2" fill="#5D4037"/>
  <rect x="452" y="34" width="2" height="2" fill="#5D4037"/>
  <rect x="454" y="34" width="2" height="2" fill="#5D4037"/>
  <rect x="456" y="34" width="2" height="2" fill="#5D4037"/>
  <rect x="442" y="36" width="2" height="2" fill="#2C4B8C"/>
  <rect x="444" y="36" width="2" height="2" fill="#2C4B8C"/>
  <rect x="446" y="36" width="2" height="2" fill="#2C4B8C"/>
  <rect x="448" y="36" width="2" height="2" fill="#2C4B8C"/>
  <rect x="450" y="36" width="2" height="2" fill="#2C4B8C"/>
  <rect x="452" y="36" width="2" height="2" fill="#2C4B8C"/>
  <rect x="454" y="36" width="2" height="2" fill="#2C4B8C"/>
  <rect x="456" y="36" width="2" height="2" fill="#2C4B8C"/>
  <rect x="442" y="38" width="2" height="2" fill="#2C4B8C"/>
  <rect x="444" y="38" width="2" height="2" fill="#2C4B8C"/>
  <rect x="446" y="38" width="2" height="2" fill="#2C4B8C"/>
  <rect x="448" y="38" width="2" height="2" fill="#2C4B8C"/>
  <rect x="450" y="38" width="2" height="2" fill="#2C4B8C"/>
  <rect x="452" y="38" width="2" height="2" fill="#2C4B8C"/>
  <rect x="454" y="38" width="2" height="2" fill="#2C4B8C"/>
  <rect x="456" y="38" width="2" height="2" fill="#2C4B8C"/>
  <rect x="442" y="40" width="2" height="2" fill="#2C4B8C"/>
  <rect x="444" y="40" width="2" height="2" fill="#2C4B8C"/>
  <rect x="446" y="40" width="2" height="2" fill="#2C4B8C"/>
  <rect x="448" y="40" width="2" height="2" fill="#2C4B8C"/>
  <rect x="450" y="40" width="2" height="2" fill="#2C4B8C"/>
  <rect x="452" y="40" width="2" height="2" fill="#2C4B8C"/>
  <rect x="454" y="40" width="2" height="2" fill="#2C4B8C"/>
  <rect x="456" y="40" width="2" height="2" fill="#2C4B8C"/>
  <rect x="434" y="22" width="2" height="2" fill="#3C6EAC"/>
  <rect x="436" y="22" width="2" height="2" fill="#3C6EAC"/>
  <rect x="438" y="22" width="2" height="2" fill="#3C6EAC"/>
  <rect x="440" y="22" width="2" height="2" fill="#3C6EAC"/>
  <rect x="434" y="24" width="2" height="2" fill="#3C6EAC"/>
  <rect x="436" y="24" width="2" height="2" fill="#2C5590"/>
  <rect x="438" y="24" width="2" height="2" fill="#3C6EAC"/>
  <rect x="440" y="24" width="2" height="2" fill="#3C6EAC"/>
  <rect x="434" y="26" width="2" height="2" fill="#3C6EAC"/>
  <rect x="436" y="26" width="2" height="2" fill="#3C6EAC"/>
  <rect x="438" y="26" width="2" height="2" fill="#3C6EAC"/>
  <rect x="440" y="26" width="2" height="2" fill="#3C6EAC"/>
  <rect x="434" y="28" width="2" height="2" fill="#3C6EAC"/>
  <rect x="436" y="28" width="2" height="2" fill="#3C6EAC"/>
  <rect x="438" y="28" width="2" height="2" fill="#3C6EAC"/>
  <rect x="440" y="28" width="2" height="2" fill="#3C6EAC"/>
  <rect x="434" y="30" width="2" height="2" fill="#3C6EAC"/>
  <rect x="436" y="30" width="2" height="2" fill="#3C6EAC"/>
  <rect x="438" y="30" width="2" height="2" fill="#2C5590"/>
  <rect x="440" y="30" width="2" height="2" fill="#3C6EAC"/>
  <rect x="434" y="32" width="2" height="2" fill="#3C6EAC"/>
  <rect x="436" y="32" width="2" height="2" fill="#3C6EAC"/>
  <rect x="438" y="32" width="2" height="2" fill="#3C6EAC"/>
  <rect x="440" y="32" width="2" height="2" fill="#3C6EAC"/>
  <rect x="434" y="34" width="2" height="2" fill="#2C4B8C"/>
  <rect x="436" y="34" width="2" height="2" fill="#2C4B8C"/>
  <rect x="438" y="34" width="2" height="2" fill="#2C4B8C"/>
  <rect x="440" y="34" width="2" height="2" fill="#2C4B8C"/>
  <rect x="434" y="36" width="2" height="2" fill="#2C4B8C"/>
  <rect x="436" y="36" width="2" height="2" fill="#2C4B8C"/>
  <rect x="438" y="36" width="2" height="2" fill="#2C4B8C"/>
  <rect x="440" y="36" width="2" height="2" fill="#2C4B8C"/>
  <rect x="434" y="38" width="2" height="2" fill="#C68642"/>
  <rect x="436" y="38" width="2" height="2" fill="#C68642"/>
  <rect x="438" y="38" width="2" height="2" fill="#C68642"/>
  <rect x="440" y="38" width="2" height="2" fill="#C68642"/>
  <rect x="434" y="40" width="2" height="2" fill="#C68642"/>
  <rect x="436" y="40" width="2" height="2" fill="#C68642"/>
  <rect x="438" y="40" width="2" height="2" fill="#C68642"/>
  <rect x="440" y="40" width="2" height="2" fill="#C68642"/>
  <rect x="458" y="22" width="2" height="2" fill="#3C6EAC"/>
  <rect x="460" y="22" width="2" height="2" fill="#3C6EAC"/>
  <rect x="462" y="22" width="2" height="2" fill="#3C6EAC"/>
  <rect x="464" y="22" width="2" height="2" fill="#3C6EAC"/>
  <rect x="458" y="24" width="2" height="2" fill="#3C6EAC"/>
  <rect x="460" y="24" width="2" height="2" fill="#2C5590"/>
  <rect x="462" y="24" width="2" height="2" fill="#3C6EAC"/>
  <rect x="464" y="24" width="2" height="2" fill="#3C6EAC"/>
  <rect x="458" y="26" width="2" height="2" fill="#3C6EAC"/>
  <rect x="460" y="26" width="2" height="2" fill="#3C6EAC"/>
  <rect x="462" y="26" width="2" height="2" fill="#3C6EAC"/>
  <rect x="464" y="26" width="2" height="2" fill="#3C6EAC"/>
  <rect x="458" y="28" width="2" height="2" fill="#3C6EAC"/>
  <rect x="460" y="28" width="2" height="2" fill="#3C6EAC"/>
  <rect x="462" y="28" width="2" height="2" fill="#3C6EAC"/>
  <rect x="464" y="28" width="2" height="2" fill="#3C6EAC"/>
  <rect x="458" y="30" width="2" height="2" fill="#3C6EAC"/>
  <rect x="460" y="30" width="2" height="2" fill="#3C6EAC"/>
  <rect x="462" y="30" width="2" height="2" fill="#2C5590"/>
  <rect x="464" y="30" width="2" height="2" fill="#3C6EAC"/>
  <rect x="458" y="32" width="2" height="2" fill="#3C6EAC"/>
  <rect x="460" y="32" width="2" height="2" fill="#3C6EAC"/>
  <rect x="462" y="32" width="2" height="2" fill="#3C6EAC"/>
  <rect x="464" y="32" width="2" height="2" fill="#3C6EAC"/>
  <rect x="458" y="34" width="2" height="2" fill="#2C4B8C"/>
  <rect x="460" y="34" width="2" height="2" fill="#2C4B8C"/>
  <rect x="462" y="34" width="2" height="2" fill="#2C4B8C"/>
  <rect x="464" y="34" width="2" height="2" fill="#2C4B8C"/>
  <rect x="458" y="36" width="2" height="2" fill="#2C4B8C"/>
  <rect x="460" y="36" width="2" height="2" fill="#2C4B8C"/>
  <rect x="462" y="36" width="2" height="2" fill="#2C4B8C"/>
  <rect x="464" y="36" width="2" height="2" fill="#2C4B8C"/>
  <rect x="458" y="38" width="2" height="2" fill="#C68642"/>
  <rect x="460" y="38" width="2" height="2" fill="#C68642"/>
  <rect x="462" y="38" width="2" height="2" fill="#C68642"/>
  <rect x="464" y="38" width="2" height="2" fill="#C68642"/>
  <rect x="458" y="40" width="2" height="2" fill="#C68642"/>
  <rect x="460" y="40" width="2" height="2" fill="#C68642"/>
  <rect x="462" y="40" width="2" height="2" fill="#C68642"/>
  <rect x="464" y="40" width="2" height="2" fill="#C68642"/>
  <rect x="442" y="42" width="2" height="2" fill="#2C4B8C"/>
  <rect x="444" y="42" width="2" height="2" fill="#2C4B8C"/>
  <rect x="446" y="42" width="2" height="2" fill="#2C4B8C"/>
  <rect x="448" y="42" width="2" height="2" fill="#2C4B8C"/>
  <rect x="450" y="42" width="2" height="2" fill="#2C4B8C"/>
  <rect x="452" y="42" width="2" height="2" fill="#2C4B8C"/>
  <rect x="454" y="42" width="2" height="2" fill="#2C4B8C"/>
  <rect x="456" y="42" width="2" height="2" fill="#2C4B8C"/>
  <rect x="442" y="44" width="2" height="2" fill="#2C4B8C"/>
  <rect x="444" y="44" width="2" height="2" fill="#2C4B8C"/>
  <rect x="446" y="44" width="2" height="2" fill="#2C4B8C"/>
  <rect x="448" y="44" width="2" height="2" fill="#2C4B8C"/>
  <rect x="450" y="44" width="2" height="2" fill="#2C4B8C"/>
  <rect x="452" y="44" width="2" height="2" fill="#2C4B8C"/>
  <rect x="454" y="44" width="2" height="2" fill="#2C4B8C"/>
  <rect x="456" y="44" width="2" height="2" fill="#2C4B8C"/>
  <rect x="442" y="46" width="2" height="2" fill="#2C4B8C"/>
  <rect x="444" y="46" width="2" height="2" fill="#2C4B8C"/>
  <rect x="446" y="46" width="2" height="2" fill="#2C4B8C"/>
  <rect x="448" y="46" width="2" height="2" fill="#2C4B8C"/>
  <rect x="450" y="46" width="2" height="2" fill="#2C4B8C"/>
  <rect x="452" y="46" width="2" height="2" fill="#2C4B8C"/>
  <rect x="454" y="46" width="2" height="2" fill="#2C4B8C"/>
  <rect x="456" y="46" width="2" height="2" fill="#2C4B8C"/>
  <rect x="442" y="48" width="2" height="2" fill="#2C4B8C"/>
  <rect x="444" y="48" width="2" height="2" fill="#2C4B8C"/>
  <rect x="446" y="48" width="2" height="2" fill="#2C4B8C"/>
  <rect x="448" y="48" width="2" height="2" fill="#2C4B8C"/>
  <rect x="450" y="48" width="2" height="2" fill="#2C4B8C"/>
  <rect x="452" y="48" width="2" height="2" fill="#2C4B8C"/>
  <rect x="454" y="48" width="2" height="2" fill="#2C4B8C"/>
  <rect x="456" y="48" width="2" height="2" fill="#2C4B8C"/>
  <rect x="442" y="50" width="2" height="2" fill="#3E2723"/>
  <rect x="444" y="50" width="2" height="2" fill="#3E2723"/>
  <rect x="446" y="50" width="2" height="2" fill="#3E2723"/>
  <rect x="448" y="50" width="2" height="2" fill="#3E2723"/>
  <rect x="450" y="50" width="2" height="2" fill="#3E2723"/>
  <rect x="452" y="50" width="2" height="2" fill="#3E2723"/>
  <rect x="454" y="50" width="2" height="2" fill="#3E2723"/>
  <rect x="456" y="50" width="2" height="2" fill="#3E2723"/>
  <rect x="442" y="52" width="2" height="2" fill="#3E2723"/>
  <rect x="444" y="52" width="2" height="2" fill="#3E2723"/>
  <rect x="446" y="52" width="2" height="2" fill="#3E2723"/>
  <rect x="448" y="52" width="2" height="2" fill="#3E2723"/>
  <rect x="450" y="52" width="2" height="2" fill="#3E2723"/>
  <rect x="452" y="52" width="2" height="2" fill="#3E2723"/>
  <rect x="454" y="52" width="2" height="2" fill="#3E2723"/>
  <rect x="456" y="52" width="2" height="2" fill="#3E2723"/>
  </g>

</svg>
